<mxfile host="Electron" modified="2024-02-25T21:20:01.195Z" agent="Mozilla/5.0 (Windows NT 10.0; Win64; x64) AppleWebKit/537.36 (KHTML, like Gecko) draw.io/23.1.5 Chrome/120.0.6099.109 Electron/28.1.0 Safari/537.36" etag="kudoystp6VkqDHk4VC-3" version="23.1.5" type="device">
  <diagram name="Page-1" id="2YBvvXClWsGukQMizWep">
    <mxGraphModel dx="1434" dy="844" grid="1" gridSize="10" guides="1" tooltips="1" connect="1" arrows="1" fold="1" page="1" pageScale="1" pageWidth="850" pageHeight="1100" math="0" shadow="0">
      <root>
        <mxCell id="0" />
        <mxCell id="1" parent="0" />
        <mxCell id="36UaZG5Xqug6aajMQ6Ba-6" style="edgeStyle=orthogonalEdgeStyle;rounded=0;orthogonalLoop=1;jettySize=auto;html=1;exitX=1;exitY=0.5;exitDx=0;exitDy=0;" parent="1" source="36UaZG5Xqug6aajMQ6Ba-1" target="36UaZG5Xqug6aajMQ6Ba-2" edge="1">
          <mxGeometry relative="1" as="geometry" />
        </mxCell>
        <mxCell id="36UaZG5Xqug6aajMQ6Ba-1" value="Confing I2c&lt;br&gt;interface 0 and 1" style="rounded=0;whiteSpace=wrap;html=1;" parent="1" vertex="1">
          <mxGeometry x="80" y="150" width="120" height="60" as="geometry" />
        </mxCell>
        <mxCell id="36UaZG5Xqug6aajMQ6Ba-2" value="Clock rate&lt;br&gt;Pull ups&lt;br&gt;Slave address&lt;br&gt;Slave mem address witdth" style="rounded=0;whiteSpace=wrap;html=1;" parent="1" vertex="1">
          <mxGeometry x="280" y="150" width="260" height="60" as="geometry" />
        </mxCell>
        <mxCell id="36UaZG5Xqug6aajMQ6Ba-3" value="Connect and disconnect device" style="rounded=0;whiteSpace=wrap;html=1;" parent="1" vertex="1">
          <mxGeometry x="80" y="80" width="120" height="60" as="geometry" />
        </mxCell>
        <mxCell id="36UaZG5Xqug6aajMQ6Ba-4" value="I2C master" style="rounded=0;whiteSpace=wrap;html=1;" parent="1" vertex="1">
          <mxGeometry x="80" y="230" width="120" height="60" as="geometry" />
        </mxCell>
        <mxCell id="36UaZG5Xqug6aajMQ6Ba-5" value="I2C slave" style="rounded=0;whiteSpace=wrap;html=1;" parent="1" vertex="1">
          <mxGeometry x="80" y="490" width="120" height="60" as="geometry" />
        </mxCell>
        <mxCell id="36UaZG5Xqug6aajMQ6Ba-7" value="Create master requests" style="rounded=0;whiteSpace=wrap;html=1;" parent="1" vertex="1">
          <mxGeometry x="280" y="230" width="310" height="30" as="geometry" />
        </mxCell>
        <mxCell id="36UaZG5Xqug6aajMQ6Ba-8" value="Create slave requests" style="rounded=0;whiteSpace=wrap;html=1;" parent="1" vertex="1">
          <mxGeometry x="280" y="490" width="310" height="30" as="geometry" />
        </mxCell>
        <mxCell id="36UaZG5Xqug6aajMQ6Ba-9" value="Send master requests" style="rounded=0;whiteSpace=wrap;html=1;" parent="1" vertex="1">
          <mxGeometry x="310" y="260" width="280" height="30" as="geometry" />
        </mxCell>
        <mxCell id="36UaZG5Xqug6aajMQ6Ba-10" value="Bundle master request into sequence" style="rounded=0;whiteSpace=wrap;html=1;" parent="1" vertex="1">
          <mxGeometry x="340" y="290" width="250" height="30" as="geometry" />
        </mxCell>
        <mxCell id="36UaZG5Xqug6aajMQ6Ba-11" value="Visualze request and response" style="rounded=0;whiteSpace=wrap;html=1;" parent="1" vertex="1">
          <mxGeometry x="280" y="320" width="310" height="90" as="geometry" />
        </mxCell>
        <mxCell id="36UaZG5Xqug6aajMQ6Ba-12" value="Send slave requests" style="rounded=0;whiteSpace=wrap;html=1;" parent="1" vertex="1">
          <mxGeometry x="310" y="520" width="280" height="30" as="geometry" />
        </mxCell>
        <mxCell id="36UaZG5Xqug6aajMQ6Ba-13" value="Visualze request and access" style="rounded=0;whiteSpace=wrap;html=1;" parent="1" vertex="1">
          <mxGeometry x="590" y="490" width="210" height="90" as="geometry" />
        </mxCell>
        <mxCell id="36UaZG5Xqug6aajMQ6Ba-14" value="Slave addr" style="rounded=0;whiteSpace=wrap;html=1;" parent="1" vertex="1">
          <mxGeometry x="640" y="180" width="310" height="30" as="geometry" />
        </mxCell>
        <mxCell id="36UaZG5Xqug6aajMQ6Ba-15" value="Mem addr" style="rounded=0;whiteSpace=wrap;html=1;" parent="1" vertex="1">
          <mxGeometry x="640" y="210" width="310" height="30" as="geometry" />
        </mxCell>
        <mxCell id="36UaZG5Xqug6aajMQ6Ba-16" value="Write data" style="rounded=0;whiteSpace=wrap;html=1;" parent="1" vertex="1">
          <mxGeometry x="640" y="240" width="310" height="30" as="geometry" />
        </mxCell>
        <mxCell id="36UaZG5Xqug6aajMQ6Ba-17" value="Timestamp, request id, status, write data, read data" style="rounded=0;whiteSpace=wrap;html=1;" parent="1" vertex="1">
          <mxGeometry x="590" y="320" width="300" height="30" as="geometry" />
        </mxCell>
        <mxCell id="36UaZG5Xqug6aajMQ6Ba-18" value="Timestamp, request id, status, write data, read, size" style="rounded=0;whiteSpace=wrap;html=1;" parent="1" vertex="1">
          <mxGeometry x="630" y="380" width="390" height="30" as="geometry" />
        </mxCell>
        <mxCell id="36UaZG5Xqug6aajMQ6Ba-19" value="hex, dec, asci visualization" style="rounded=0;whiteSpace=wrap;html=1;" parent="1" vertex="1">
          <mxGeometry x="890" y="320" width="120" height="30" as="geometry" />
        </mxCell>
      </root>
    </mxGraphModel>
  </diagram>
</mxfile>
